<?xml version="1.0" encoding="UTF-8"?>
<svg width="18px" height="20px" viewBox="0 0 18 20" version="1.1" xmlns="http://www.w3.org/2000/svg" xmlns:xlink="http://www.w3.org/1999/xlink">
    <title>6FE58EAD-59FA-4CE2-B030-863693B3FCE7@1.00x</title>
    <g id="Contact-Manager" stroke="none" stroke-width="1" fill="none" fill-rule="evenodd">
        <g id="Manage-Contacts" transform="translate(-1351.000000, -821.000000)" fill="#11305D" fill-rule="nonzero">
            <g id="address-book-copy-2" transform="translate(1351.000000, 821.000000)">
                <path d="M17.03125,6.25 C17.2890625,6.25 17.5,6.0390625 17.5,5.78125 L17.5,4.21875 C17.5,3.9609375 17.2890625,3.75 17.03125,3.75 L16.25,3.75 L16.25,1.875 C16.25,0.83984375 15.4101562,0 14.375,0 L1.875,0 C0.83984375,0 0,0.83984375 0,1.875 L0,18.125 C0,19.1601562 0.83984375,20 1.875,20 L14.375,20 C15.4101562,20 16.25,19.1601562 16.25,18.125 L16.25,16.25 L17.03125,16.25 C17.2890625,16.25 17.5,16.0390625 17.5,15.78125 L17.5,14.21875 C17.5,13.9609375 17.2890625,13.75 17.03125,13.75 L16.25,13.75 L16.25,11.25 L17.03125,11.25 C17.2890625,11.25 17.5,11.0390625 17.5,10.78125 L17.5,9.21875 C17.5,8.9609375 17.2890625,8.75 17.03125,8.75 L16.25,8.75 L16.25,6.25 L17.03125,6.25 Z M14.375,18.125 L1.875,18.125 L1.875,1.875 L14.375,1.875 L14.375,18.125 Z M8.125,10 C9.50390625,10 10.625,8.87890625 10.625,7.5 C10.625,6.12109375 9.50390625,5 8.125,5 C6.74609375,5 5.625,6.12109375 5.625,7.5 C5.625,8.87890625 6.74609375,10 8.125,10 Z M4.625,15 L11.625,15 C12.109375,15 12.5,14.6640625 12.5,14.25 L12.5,13.5 C12.5,12.2578125 11.3242188,11.25 9.875,11.25 C9.453125,11.25 9.14453125,11.5625 8.125,11.5625 C7.07421875,11.5625 6.8203125,11.25 6.375,11.25 C4.92578125,11.25 3.75,12.2578125 3.75,13.5 L3.75,14.25 C3.75,14.6640625 4.140625,15 4.625,15 Z" id="Shape"></path>
            </g>
        </g>
    </g>
</svg>
